HIERARCHY
ROOT Hips
{
	OFFSET 0.000000 0.000000 0.000000 
	CHANNELS 6 Xposition Yposition Zposition Yrotation Zrotation Xrotation 
	JOINT Lumbar
	{
		OFFSET 0.000000 0.000000 0.000000 
		CHANNELS 3 Zrotation Xrotation Yrotation
		JOINT Neck
		{
			OFFSET 0.000000 0.445665 0.000000 
			CHANNELS 3 Zrotation Xrotation Yrotation
			End Site
			{
				OFFSET 0.000000 0.227535 0.000000 
			}
		}
		JOINT RightShoulder
		{
			OFFSET 0.019635 0.377685 0.194865 
			CHANNELS 3 Zrotation Xrotation Yrotation
			JOINT RightElbow
			{
				OFFSET 0.000000 -0.243375 0.000000 
				CHANNELS 2 Zrotation Yrotation
				JOINT RightWrist
				{
					OFFSET 0.000000 -0.264825 0.000000 
					CHANNELS 2 Zrotation Xrotation
					End Site
					{
						OFFSET 0.006600 -0.176220 0.000990 
					}
				}
			}
		}
		JOINT LeftShoulder
		{
			OFFSET 0.019635 0.377685 -0.194865 
			CHANNELS 3 Zrotation Xrotation Yrotation
			JOINT LeftElbow
			{
				OFFSET 0.000000 -0.243375 0.000000 
				CHANNELS 2 Zrotation Yrotation
				JOINT LeftWrist
				{
					OFFSET 0.000000 -0.264825 0.000000 
					CHANNELS 2 Zrotation Xrotation
					End Site
					{
						OFFSET 0.006600 -0.176220 -0.000990 
					}
				}
			}
		}
	}
	JOINT RightHip
	{
		OFFSET 0.052140 -0.069960 0.075570 
		CHANNELS 3 Zrotation Xrotation Yrotation
		JOINT RightKnee
		{
			OFFSET 0.000000 -0.402270 0.000000 
			CHANNELS 1 Zrotation
			JOINT RightAnkle
			{
				OFFSET 0.000000 -0.404085 0.000000 
				CHANNELS 3 Zrotation Xrotation Yrotation
				End Site
				{
					OFFSET 0.204105 -0.089430 0.008415 
				}
			}
		}
	}
	JOINT LeftHip
	{
		OFFSET 0.052140 -0.069960 -0.075570 
		CHANNELS 3 Zrotation Xrotation Yrotation
		JOINT LeftKnee
		{
			OFFSET 0.000000 -0.402270 0.000000 
			CHANNELS 1 Zrotation
			JOINT LeftAnkle
			{
				OFFSET 0.000000 -0.404085 0.000000 
				CHANNELS 3 Zrotation Xrotation Yrotation
				End Site
				{
					OFFSET 0.204105 -0.089430 -0.008415 
				}
			}
		}
	}
}
MOTION
Frames: 26
Frame Time: 0.02
-0 0.95578 0 208.20168 0 -3.30478 6.29035 4.77569 -3.44345 -16.28908 -4.65205 -2.05113 -7.11183 -7.40628 11.16775 92.08456 99.61559 28.34211 -0.44276 -3.91405 16.65031 -14.03601 88.32124 -86.80677 38.65149 2.43982 -4.96449 6.79505 1.50694 -3.82301 1.33967 -2.91507 -5.11227 -3.40894 1.04023 -11.55677 -4.79236 5.01928 3.34502 4.7269
0.00023 0.95579 -7e-05 208.18416 0 -3.30824 6.30587 4.76454 -3.39238 -16.31477 -4.61324 -2.12606 -7.09539 -7.47482 11.13996 92.07921 99.56054 28.43112 -0.46029 -3.92523 16.625 -13.82978 88.35797 -87.0573 39.41684 2.41744 -4.9414 6.79418 1.50631 -3.83738 1.33465 -2.91857 -5.09862 -3.42426 0.97499 -13.22398 -4.7749 4.84714 3.66264 6.40933
0.00047 0.9558 -0.00013 208.16666 0 -3.31169 6.32141 4.75341 -3.34169 -16.34042 -4.57482 -2.20042 -7.07901 -7.54278 11.11218 92.07382 99.50518 28.51974 -0.47779 -3.9361 16.59991 -13.6252 88.39454 -87.30591 40.17642 2.39528 -4.91833 6.79335 1.50577 -3.8517 1.32955 -2.92207 -5.08507 -3.43928 0.91052 -14.87224 -4.75759 4.67678 3.97706 8.07277
0.0007 0.95581 -0.0002 208.14932 0 -3.31512 6.33707 4.74225 -3.29227 -16.36625 -4.53746 -2.2733 -7.06268 -7.60922 11.08404 92.0683 99.44794 28.60838 -0.4954 -3.94577 16.57547 -13.42547 88.43075 -87.54918 40.91993 2.37382 -4.89523 6.79263 1.50517 -3.86595 1.32424 -2.92567 -5.07162 -3.45326 0.84911 -16.44631 -4.74051 4.51318 4.2798 9.66165
0.00094 0.95582 -0.00026 208.13144 0 -3.31861 6.35198 4.73123 -3.23644 -16.39124 -4.49437 -2.35408 -7.04603 -7.68386 11.05768 92.06357 99.40055 28.69775 -0.51249 -3.96171 16.54759 -13.20038 88.46878 -87.82061 41.74802 2.3487 -4.87244 6.79125 1.50437 -3.88057 1.32023 -2.92883 -5.05743 -3.47279 0.77222 -18.39597 -4.722 4.31534 4.64207 11.62766
0.00118 0.95583 -0.00034 208.11453 0 -3.32201 6.3685 4.71996 -3.19403 -16.41793 -4.46353 -2.41805 -7.03013 -7.74096 11.02763 92.05712 99.33242 28.78493 -0.53062 -3.96444 16.52702 -13.02891 88.50299 -88.03229 42.39675 2.33131 -4.84892 6.7913 1.50436 -3.89438 1.31336 -2.93286 -5.04496 -3.48055 0.72765 -19.56113 -4.70669 4.18908 4.87966 12.80613
0.00143 0.95586 -0.00051 208.10152 0 -3.325 6.38969 4.70737 -3.19026 -16.45048 -4.46622 -2.43601 -7.01548 -7.75066 10.98584 92.04571 99.20275 28.87323 -0.55257 -3.92891 16.52691 -13.00806 88.52655 -88.07838 42.54689 2.336 -4.82342 6.79518 1.50345 -3.90635 1.29903 -2.93984 -5.03583 -3.45488 0.77859 -18.40719 -4.69866 4.27358 4.75266 11.65515
0.0017 0.95589 -0.0007 208.08928 0 -3.32794 6.41246 4.69462 -3.19966 -16.48439 -4.48136 -2.43701 -7.00175 -7.74249 10.94062 92.03244 99.05283 28.95821 -0.57541 -3.88042 16.53423 -13.04081 88.54627 -88.0645 42.51673 2.34837 -4.7971 6.80052 1.50386 -3.9175 1.28173 -2.94762 -5.02867 -3.41742 0.8612 -16.48466 -4.69411 4.42832 4.50287 9.7328
0.00196 0.95592 -0.00089 208.07587 0 -3.33102 6.43443 4.68232 -3.20209 -16.51721 -4.49098 -2.44547 -6.98806 -7.74183 10.89781 92.02034 98.91477 29.04001 -0.59726 -3.83889 16.53783 -13.04737 88.56786 -88.07827 42.57135 2.35678 -4.77113 6.80526 1.50569 -3.92875 1.2655 -2.95467 -5.02153 -3.38599 0.92511 -15.0159 -4.68902 4.54217 4.32287 8.26684
0.00222 0.95595 -0.00106 208.06584 0 -3.3336 6.45688 4.66842 -3.20898 -16.55279 -4.49995 -2.45476 -6.97231 -7.74369 10.85112 92.00746 98.76538 29.14113 -0.62161 -3.79251 16.54244 -13.06173 88.58899 -88.08957 42.61389 2.36723 -4.74543 6.80969 1.49913 -3.94098 1.25045 -2.96321 -5.01057 -3.35191 1.0066 -13.12021 -4.67968 4.69271 4.08582 6.36847
0.00249 0.95598 -0.00126 208.04905 0 -3.33721 6.47854 4.65784 -3.2093 -16.58197 -4.51333 -2.45853 -6.96124 -7.73611 10.81206 91.995 98.63493 29.20177 -0.64095 -3.75357 16.54726 -13.07248 88.61008 -88.09276 42.63879 2.37517 -4.71878 6.81514 1.51018 -3.95118 1.23224 -2.9689 -5.00797 -3.32034 1.05976 -11.91364 -4.67985 4.78496 3.93595 5.16969
0.0028 0.95602 -0.0015 208.01214 0 -3.34381 6.4989 4.65626 -3.19144 -16.60044 -4.535 -2.44915 -6.96163 -7.70659 10.7914 91.99071 98.56082 29.147 -0.64617 -3.73463 16.54626 -13.05947 88.63273 -88.08134 42.66006 2.3749 -4.69095 6.82301 1.57131 -3.95436 1.20597 -2.96592 -5.02845 -3.30032 1.02027 -12.95097 -4.70674 4.68656 4.07843 6.24702
0.00312 0.95605 -0.00176 207.96847 0 -3.35144 6.51803 4.6581 -3.16573 -16.61025 -4.56089 -2.43507 -6.96711 -7.66838 10.779 91.9856 98.50691 29.05259 -0.64629 -3.72426 16.54614 -13.04005 88.65533 -88.06617 42.67029 2.37164 -4.66182 6.83189 1.64999 -3.95595 1.17657 -2.96014 -5.05722 -3.28288 0.95235 -14.6817 -4.74283 4.52919 4.30904 8.028
0.00344 0.95609 -0.00201 207.92889 0 -3.35848 6.53711 4.65841 -3.14178 -16.62029 -4.58531 -2.4247 -6.97081 -7.63412 10.76531 91.97667 98.44397 28.97903 -0.64882 -3.71242 16.54853 -13.02533 88.6775 -88.05591 42.68411 2.36947 -4.63263 6.84033 1.71925 -3.9592 1.14877 -2.95608 -5.08181 -3.26314 0.9019 -15.99217 -4.77384 4.40736 4.48487 9.38222
0.00375 0.95612 -0.00225 207.88565 0 -3.36597 6.55948 4.65841 -3.12671 -16.64938 -4.608 -2.40765 -6.97148 -7.59864 10.74177 91.98572 98.37855 28.89272 -0.65111 -3.69005 16.53859 -13.00923 88.7015 -88.0257 42.69492 2.36908 -4.60672 6.84867 1.79388 -3.95802 1.12042 -2.95025 -5.10804 -3.24785 0.83362 -17.71174 -4.80876 4.25205 4.71779 11.15282
0.0041 0.95616 -0.00252 207.84765 0 -3.37286 6.57385 4.66014 -3.0901 -16.63248 -4.63548 -2.40292 -6.98068 -7.5646 10.73989 91.95674 98.3248 28.82444 -0.65252 -3.69163 16.55482 -12.98839 88.72168 -88.04234 42.71515 2.36372 -4.57299 6.85752 1.86245 -3.96624 1.09213 -2.94731 -5.13303 -3.22393 0.795 -18.76388 -4.8377 4.15031 4.85535 12.24379
0.00451 0.95622 -0.00286 207.83238 0 -3.37697 6.57349 4.66342 -3.00464 -16.52684 -4.67217 -2.43939 -7.00254 -7.53081 10.80204 91.82683 98.28673 28.80677 -0.65402 -3.75789 16.64026 -13.00076 88.7325 -88.14379 42.73264 2.34907 -4.52389 6.86687 1.90148 -3.996 1.06807 -2.95392 -5.15042 -3.17678 0.84778 -17.72277 -4.84781 4.22126 4.69974 11.20123
0.00498 0.95629 -0.00325 207.82138 0 -3.38058 6.56383 4.66871 -2.89611 -16.36841 -4.71398 -2.48742 -7.03393 -7.50019 10.88365 91.65834 98.26235 28.80917 -0.65442 -3.84719 16.75275 -12.99919 88.73991 -88.30164 42.76467 2.32868 -4.46593 6.87683 1.93536 -4.03604 1.04354 -2.96336 -5.16662 -3.12067 0.93071 -16.00617 -4.85166 4.34582 4.44735 9.4714
0.00545 0.95636 -0.00363 207.80411 0 -3.385 6.5537 4.67468 -2.79239 -16.21056 -4.75537 -2.52627 -7.06815 -7.47175 10.95349 91.50445 98.23894 28.8096 -0.65465 -3.9265 16.85435 -12.9754 88.74732 -88.46338 42.81426 2.30861 -4.40807 6.88696 1.97724 -4.07472 1.01712 -2.97088 -5.18482 -3.06796 0.99811 -14.65397 -4.85834 4.43872 4.24523 8.11395
0.00581 0.95641 -0.00396 207.80492 0 -3.38706 6.56312 4.67424 -2.71234 -16.15153 -4.78901 -2.58139 -7.07513 -7.42677 11.03978 91.36128 98.18432 28.78299 -0.65813 -4.00701 16.94903 -13.07515 88.75866 -88.49895 42.76997 2.29858 -4.36649 6.89525 1.996 -4.09994 0.99962 -2.98092 -5.19735 -3.01828 1.07253 -13.078 -4.86511 4.56056 4.01925 6.52167
0.00642 0.95651 -0.00441 207.76916 0 -3.39382 6.5299 4.68736 -2.57765 -15.87388 -4.83975 -2.60559 -7.13752 -7.41828 11.09156 91.18869 98.19962 28.81227 -0.65391 -4.08668 17.06584 -12.91039 88.76429 -88.81246 42.914 2.26574 -4.28923 6.90749 2.06125 -4.15491 0.96326 -2.98649 -5.22103 -2.95998 1.1395 -11.8051 -4.87043 4.63542 3.81921 5.25299
0.00768 0.95679 -0.00522 207.6317 0 -3.41445 6.37881 4.73926 -2.29753 -15.00869 -4.93771 -2.54052 -7.38071 -7.4999 11.08251 90.92772 98.38964 29.03933 -0.63436 -4.1904 17.22508 -12.05165 88.72744 -89.86509 43.66843 2.1763 -4.11288 6.93055 2.25764 -4.29596 0.87675 -2.97845 -5.278 -2.88126 1.18202 -11.4733 -4.87039 4.56961 3.71121 4.98122
0.00919 0.95713 -0.00616 207.45742 0 -3.43967 6.18559 4.80434 -1.96344 -13.92496 -5.05213 -2.44436 -7.67365 -7.62009 11.02982 90.64227 98.65321 29.31252 -0.60563 -4.2867 17.4073 -10.92066 88.69053 -91.19774 44.59499 2.06324 -3.90147 6.95755 2.50036 -4.46542 0.77099 -2.9659 -5.34568 -2.79388 1.21565 -11.47447 -4.8696 4.45472 3.63284 5.06398
0.0106 0.95743 -0.00705 207.29965 0 -3.4623 6.01321 4.86224 -1.65399 -12.93897 -5.15853 -2.36287 -7.92406 -7.72908 10.97246 90.37806 98.89163 29.53383 -0.57799 -4.36502 17.58765 -9.89317 88.67112 -92.41243 45.38047 1.95771 -3.70785 6.98269 2.72111 -4.61765 0.67282 -2.95585 -5.40708 -2.70973 1.251 -11.36405 -4.87099 4.36092 3.54259 5.02794
0.01199 0.95775 -0.0079 207.14236 0 -3.48708 5.83329 4.92544 -1.34258 -11.95699 -5.26864 -2.2786 -8.25899 -7.81122 11.02281 90.06701 99.0917 29.88875 -0.56515 -4.53327 17.7352 -8.95215 88.57603 -93.59189 46.42942 1.86535 -3.50594 7.00813 2.9466 -4.78844 0.57938 -2.94417 -5.4748 -2.62844 1.2965 -11.07645 -4.86437 4.27333 3.44231 4.80415
0.01346 0.95806 -0.00887 206.97605 0 -3.50844 5.65929 4.98045 -1.02363 -10.91646 -5.37329 -2.19371 -8.42944 -7.9587 10.83372 89.85169 99.39381 29.97304 -0.517 -4.51345 17.95308 -7.7646 88.64085 -94.9079 46.9733 1.74022 -3.31325 7.03389 3.172 -4.9272 0.47168 -2.93457 -5.53141 -2.53899 1.31922 -11.22851 -4.87438 4.16141 3.37125 5.04637
